<?xml version="1.0" encoding="UTF-8"?>
<svg id="LABELS" xmlns="http://www.w3.org/2000/svg" viewBox="0 0 200 200">
  <defs>
    <style>
      .cls-1 {
        fill: #e8aa0f;
      }

      .cls-2 {
        fill: #fff;
      }
    </style>
  </defs>
  <circle class="cls-1" cx="100" cy="100" r="100"/>
  <path class="cls-2" d="m158.06,66.48c-.84-2-2.86-4.84-6.9-9.02-1.72-1.72-4.51-1.72-6.23,0l-52.29,52.3-19.3-19.3c-1.72-1.72-4.51-1.72-6.23,0l-6.23,6.23c-1.72,1.72-1.72,4.51,0,6.23l28.65,28.65c1.72,1.72,4.51,1.72,6.23,0l53.84-53.84c4.42,9.77,6.1,21.02,3.82,32.85-4.4,22.82-23.44,40.56-46.5,43.41-35.47,4.39-65.4-25.62-60.87-61.11,2.98-23.33,21.19-42.45,44.37-46.47,10.65-1.85,20.82-.52,29.82,3.13,2.33.95,5,.36,6.77-1.42h0c3.23-3.23,2.1-8.71-2.13-10.43-10.26-4.16-21.76-5.86-33.82-4.27-30.58,4.02-54.84,29.11-57.87,59.8-4.28,43.48,33.19,79.67,77.02,73.19,27.98-4.14,50.68-26.06,55.83-53.88,3.13-16.91-.28-32.86-7.95-46.06Z"/>
</svg>