<svg width="150" height="52" viewBox="0 0 150 52" xmlns="http://www.w3.org/2000/svg">
<path d="M43.0757 8.37746C40.1745 5.37283 36.5569 3.15514 32.563 1.9328C33.1978 3.14618 33.5249 4.49683 33.5156 5.86616C33.544 7.83155 32.8542 9.73975 31.5757 11.2327C33.461 12.0715 35.1633 13.2721 36.5862 14.7667C38.1087 16.3125 39.3058 18.148 40.1066 20.1646C40.9074 22.1813 41.2955 24.338 41.2482 26.5072C41.3014 28.6718 40.9191 30.8251 40.1239 32.8391C39.3288 34.8531 38.137 36.6867 36.6194 38.2312C35.1855 39.7604 33.448 40.9733 31.5183 41.7922C29.5885 42.6112 27.509 43.0181 25.4129 42.987C21.6486 43.0277 17.9924 41.7284 15.0979 39.3214C11.2422 36.1949 9.31385 31.9455 9.31284 26.5733C9.31284 21.7514 10.8448 17.7772 13.9088 14.6507C15.3338 13.1724 17.0399 11.9938 18.9269 11.1843C17.8876 9.92676 17.2325 8.39658 17.0398 6.77663C16.8471 5.15669 17.1249 3.51551 17.8402 2.04929C16.0272 2.61334 14.283 3.37838 12.6401 4.33014C8.77947 6.53629 5.57919 9.73483 3.37094 13.5942C0.616823 18.458 -0.494303 24.0806 0.20272 29.6263C0.899743 35.1721 3.3677 40.3449 7.23976 44.3758C12.064 49.4186 18.1224 51.9399 25.4149 51.9399C28.7223 51.9969 32.006 51.3726 35.0617 50.106C38.1174 48.8394 40.8798 46.9575 43.1771 44.5775C48.0564 39.6675 50.4967 33.6678 50.4977 26.5783C50.4963 19.4203 48.0223 13.3533 43.0757 8.37746Z" fill="black"/>
<path d="M56.1096 14.7843H63.8376V19.3092C64.5523 17.6727 65.7069 16.2664 67.1729 15.2467C68.5175 14.3354 70.1062 13.8519 71.7306 13.86C73.0068 13.8868 74.2603 14.2029 75.3967 14.7843L72.5893 22.5457C71.7893 22.091 70.898 21.8202 69.9802 21.7529C68.5928 21.7529 67.4203 22.6116 66.4629 24.3288C65.5054 26.046 65.0267 29.4148 65.0267 34.435L65.0595 36.1854V50.7166H56.1096V14.7843Z" fill="black"/>
<path d="M83.4385 14.2014C81.8089 14.2136 80.214 13.7315 78.8641 12.8186V50.7165H87.8801V12.8751C86.5642 13.7487 85.0179 14.2104 83.4385 14.2014V14.2014Z" fill="black"/>
<path d="M105.019 0.913662V18.7474C106.53 17.1996 108.324 15.9553 110.303 15.0818C112.223 14.2617 114.292 13.8458 116.379 13.86C118.638 13.8332 120.875 14.2945 122.938 15.2122C125.002 16.1298 126.842 17.4823 128.335 19.1771C131.615 22.7215 133.256 27.268 133.256 32.8167C133.256 38.1665 131.56 42.6414 128.17 46.2416C124.78 49.8418 120.762 51.6417 116.118 51.6414C114.137 51.6586 112.173 51.2826 110.339 50.535C108.36 49.666 106.557 48.4402 105.022 46.9189V50.7166H96.0707V0.913662H105.019ZM114.5 22.1826C113.184 22.146 111.875 22.3859 110.657 22.8868C109.439 23.3876 108.34 24.1383 107.431 25.0902C105.56 27.0276 104.624 29.5596 104.624 32.6861C104.624 35.8799 105.56 38.4615 107.431 40.4308C108.333 41.3952 109.429 42.1573 110.648 42.6668C111.866 43.1763 113.178 43.4215 114.499 43.3864C115.805 43.4099 117.101 43.1538 118.3 42.6355C119.499 42.1171 120.573 41.3484 121.451 40.3809C123.333 38.3772 124.274 35.8232 124.274 32.7189C124.274 29.6368 123.35 27.1104 121.501 25.1396C120.612 24.1759 119.528 23.4135 118.32 22.9034C117.113 22.3934 115.81 22.1476 114.5 22.1826V22.1826Z" fill="black"/>
<path d="M144.302 14.2014C142.673 14.2136 141.078 13.7315 139.728 12.8186V50.7165H148.744V12.8751C147.428 13.7487 145.882 14.2105 144.302 14.2014V14.2014Z" fill="black"/>
<path d="M144.302 11.68C145.053 11.6885 145.798 11.5418 146.489 11.2491C147.18 10.9564 147.804 10.524 148.32 9.97905C148.864 9.44323 149.293 8.80249 149.582 8.09574C149.871 7.38899 150.012 6.63096 149.999 5.86768C150.013 5.09546 149.869 4.32854 149.578 3.61329C149.287 2.89804 148.853 2.24932 148.304 1.70638C147.506 0.896744 146.486 0.342959 145.372 0.115633C144.259 -0.111693 143.103 -0.00225998 142.052 0.429983C141.001 0.862226 140.102 1.59769 139.471 2.54261C138.839 3.48753 138.503 4.59909 138.506 5.73556C138.491 6.51538 138.633 7.29026 138.925 8.01379C139.216 8.73731 139.65 9.3946 140.202 9.94628C140.728 10.5037 141.364 10.9457 142.07 11.2442C142.776 11.5426 143.536 11.6911 144.302 11.68Z" fill="#DD0000"/>
<path d="M83.4386 11.68C84.1894 11.6884 84.9338 11.5417 85.6252 11.249C86.3166 10.9563 86.9401 10.524 87.4567 9.97905C88.0004 9.44321 88.4296 8.80247 88.7182 8.09572C89.0067 7.38898 89.1487 6.63096 89.1354 5.86768C89.1488 5.09548 89.0054 4.32859 88.714 3.61335C88.4226 2.89812 87.9892 2.24939 87.44 1.70638C86.6425 0.896744 85.6219 0.342959 84.5084 0.115633C83.3949 -0.111693 82.2389 -0.00225998 81.1878 0.429983C80.1367 0.862226 79.2382 1.59769 78.6068 2.54261C77.9753 3.48753 77.6396 4.59909 77.6424 5.73556C77.6271 6.51538 77.7694 7.29026 78.0608 8.01379C78.3521 8.73731 78.7864 9.3946 79.3378 9.94628C79.8638 10.5037 80.5 10.9457 81.2059 11.2442C81.9119 11.5426 82.6722 11.6911 83.4386 11.68V11.68Z" fill="#DD0000"/>
<path d="M25.2974 11.6799C26.0482 11.6884 26.7926 11.5417 27.4841 11.249C28.1755 10.9563 28.799 10.5239 29.3155 9.97896C29.8592 9.44312 30.2884 8.80238 30.577 8.09564C30.8655 7.38889 31.0075 6.63088 30.9942 5.8676C31.0077 5.09538 30.8644 4.32846 30.573 3.61321C30.2816 2.89796 29.8481 2.24925 29.2988 1.70631C28.5013 0.896847 27.4807 0.343218 26.3673 0.115993C25.2539 -0.111231 24.098 -0.00175917 23.0471 0.430462C21.9961 0.862683 21.0977 1.59807 20.4663 2.54288C19.8348 3.48768 19.4991 4.59912 19.5018 5.73548C19.4864 6.51527 19.6286 7.29013 19.9198 8.01366C20.2111 8.73719 20.6453 9.39449 21.1966 9.94619C21.7227 10.5036 22.3589 10.9456 23.0648 11.244C23.7708 11.5425 24.5311 11.6909 25.2974 11.6799V11.6799Z" fill="#DD0000"/>
</svg>
